<svg xmlns="http://www.w3.org/2000/svg" width="451" height="453" viewBox="208.445 67.141 451 453"><g fill="#b5b7b9"><path d="M525.864 265.11c0-15.7-27.322-15.837-27.658-.099v23.785l27.581-.006.077-23.68z"/><path d="M434.114 72.249c-122.169 0-221.213 99.033-221.213 221.2.001 122.153 99.044 221.186 221.213 221.186 122.188 0 221.217-99.028 221.217-221.186 0-122.167-99.029-221.2-221.217-221.2zM266.183 337.47v-72.36c-.536-40.966 71.494-40.993 70.171 1.035v12.569h-20.943l-.266-13.604c0-15.542-26.877-15.231-27.678.271v73.162c.267 15.971 27.678 15.705 27.678 0v-16.228h21.283v15.154c1.323 42.036-70.781 40.977-70.245.001zm99.869 88.069H350.64V174.392h15.411l.001 251.147zm104.208-60.123h-34.717l-.016-102.426c0-14.812-24.826-14.438-25.405.426v102h-31.124V349.67l9.837.029v-95.963l-11.696-.062v-15.697h30.068l.058 11.507s3.658-5.385 13.247-10.709c12.181-6.771 24.09-.01 22.336-.797 9.585 4.26 13.232 14.536 13.913 26.034v85.695h13.499v15.709zm6.658-27.948v-72.359c-.532-40.966 71.497-40.992 70.171 1.035l.022 34.754c0 2.156-1.756 3.896-3.917 3.896l-44.988-.049v33.797c.266 15.97 27.658 15.703 27.658 0v-16.229h21.302v15.153c1.319 42.037-70.781 40.979-70.248.002zm112.754 28.018c-6.65.104-13.155-3.121-11.331-2.316-9.569-4.258-13.213-14.537-13.913-26.051l.015-132.125h21.435v32.982l-.077.252h20.519v15.443h-20.475l.033.138-.033 85.015c.405 8.133 5.401 10.883 11.154 10.812 4.533-.043 13.106.062 13.106.062v15.76c-.001 0-16.967-.02-20.433.028z"/></g></svg>